<?xml version="1.0" encoding="utf-8"?>
<!-- Generator: Adobe Illustrator 23.0.6, SVG Export Plug-In . SVG Version: 6.00 Build 0)  -->
<svg version="1.1" id="Capa_1" xmlns="http://www.w3.org/2000/svg" xmlns:xlink="http://www.w3.org/1999/xlink" x="0px" y="0px"
	 viewBox="0 0 65 25" style="enable-background:new 0 0 65 25;" xml:space="preserve">
<style type="text/css">
	.st0{fill:#FFFFFF;}
	.st1{fill:none;stroke:#FFFFFF;}
</style>
<g>
	<path class="st0" d="M6.71,12.56v9.78H1V2.67h5.71v7.91h4.65V2.67h5.71v19.66h-5.71v-9.78H6.71z"/>
	<path class="st1" d="M28.49,2.33c5.72,0,8.59,3.39,8.59,10.17s-2.91,10.17-8.74,10.17s-8.74-3.47-8.74-10.4
		C19.58,5.64,22.55,2.33,28.49,2.33z M28.33,3.9c-1.08,0-1.8,0.59-2.18,1.78s-0.57,3.46-0.57,6.82s0.19,5.64,0.57,6.82
		s1.11,1.78,2.18,1.78c1.08,0,1.8-0.59,2.18-1.78s0.57-3.46,0.57-6.82c0-3.35-0.19-5.62-0.57-6.81S29.4,3.9,28.33,3.9z"/>
	<path class="st1" d="M39.6,22.34V2.67h8.15c5.79,0,8.69,3.28,8.69,9.85c0,6.54-3,9.81-9,9.81H39.6z M45.3,20.71h1.5
		c1.37,0,2.32-0.59,2.85-1.78c0.53-1.19,0.79-3.33,0.79-6.43s-0.26-5.24-0.79-6.43C49.13,4.89,48.18,4.3,46.8,4.3h-1.5V20.71z"/>
	<path class="st1" d="M61.46,17.54c1.69,0,2.54,0.85,2.54,2.54s-0.85,2.54-2.54,2.54s-2.54-0.85-2.54-2.54S59.77,17.54,61.46,17.54z
		"/>
</g>
</svg>
